<?xml version="1.0" standalone="no"?>
<!DOCTYPE svg PUBLIC "-//W3C//DTD SVG 20010904//EN"
 "http://www.w3.org/TR/2001/REC-SVG-20010904/DTD/svg10.dtd">
<svg version="1.0" xmlns="http://www.w3.org/2000/svg"
 width="1580.000000pt" height="1105.000000pt" viewBox="0 0 1580.000000 1105.000000"
 preserveAspectRatio="xMidYMid meet">
<metadata>
Created by potrace 1.16, written by Peter Selinger 2001-2019
</metadata>
<g transform="translate(0.000000,1105.000000) scale(0.100000,-0.100000)"
fill="#000000" stroke="none">
<path d="M8425 10833 c-85 -7 -294 -36 -381 -53 -83 -16 -103 -16 -245 -3
-248 24 -535 8 -771 -42 -655 -137 -1260 -553 -1744 -1200 -50 -66 -101 -136
-114 -155 -13 -19 -38 -51 -55 -70 -18 -19 -52 -62 -75 -95 -35 -49 -38 -55
-15 -35 l29 25 -23 -40 c-13 -22 -40 -68 -59 -102 -23 -40 -43 -63 -54 -63
-14 0 -18 -8 -18 -34 0 -22 -22 -76 -60 -152 -54 -106 -164 -350 -207 -459 -8
-22 -19 -49 -23 -60 -5 -11 -13 -33 -18 -50 l-9 -30 -549 -5 -549 -5 485 -3
c451 -2 560 -8 560 -30 0 -4 -14 -29 -30 -57 -16 -27 -30 -60 -30 -73 0 -12
-11 -41 -26 -63 -46 -74 -174 -318 -174 -334 0 -2 -11 -28 -24 -57 -55 -122
-115 -342 -136 -505 -16 -116 -7 -400 15 -498 31 -142 101 -319 168 -428 l29
-48 -18 -87 -18 -87 -96 -100 c-140 -146 -237 -280 -319 -442 -34 -68 -29 -66
-159 -78 -82 -8 -209 -42 -248 -66 -43 -26 -108 -114 -165 -224 l-48 -91 -75
-13 c-136 -22 -284 -78 -396 -149 -78 -50 -219 -194 -276 -282 -26 -41 -51
-76 -55 -78 -23 -10 -174 -129 -229 -181 -36 -33 -70 -61 -76 -61 -14 0 -36
-25 -28 -32 3 -4 -17 -34 -45 -69 -70 -86 -163 -274 -206 -416 -45 -146 -59
-186 -101 -294 -42 -107 -44 -156 -7 -218 71 -123 110 -150 310 -219 498 -170
760 -220 1543 -292 197 -18 360 -28 743 -46 l139 -6 -30 -32 c-16 -17 -74 -78
-128 -136 -166 -175 -437 -471 -699 -765 -93 -104 -184 -206 -202 -225 -18
-19 -33 -38 -33 -41 0 -3 136 -9 302 -12 1093 -24 2586 21 3413 103 55 5 169
17 253 25 84 8 161 15 173 15 20 0 20 -5 17 -112 -3 -110 -2 -113 19 -116 25
-4 28 -13 44 -162 6 -58 14 -130 18 -160 l6 -55 2017 -3 c1914 -2 2018 -1
2026 15 5 10 19 95 32 188 13 94 28 173 34 177 6 4 23 8 39 8 27 0 27 1 27 64
l0 63 403 6 c472 7 677 22 677 48 0 6 -60 72 -132 146 -73 75 -137 141 -143
147 -25 30 -294 306 -559 573 -279 282 -288 292 -260 298 158 33 241 63 327
116 48 30 60 33 172 40 285 17 748 105 1369 260 153 39 358 83 455 100 257 44
340 65 435 114 160 82 277 191 317 297 32 85 23 145 -40 291 -74 169 -131 318
-126 328 3 4 -1 14 -9 21 -8 8 -26 39 -41 69 -62 121 -145 214 -259 287 -59
38 -85 62 -114 108 -21 33 -63 81 -92 106 -60 53 -254 156 -405 216 -198 79
-531 181 -634 194 -21 3 -29 16 -57 101 -39 115 -71 174 -116 213 -69 58 -220
110 -402 139 -55 9 -103 18 -107 21 -4 2 -10 23 -14 47 -21 125 -106 330 -185
447 -83 122 -259 260 -399 315 -83 33 -98 47 -144 140 -59 116 -117 347 -117
460 l0 40 21 -30 c30 -45 89 -162 114 -229 l22 -59 12 66 c6 37 19 118 27 179
28 199 2 421 -71 603 -35 86 -129 281 -146 301 -5 6 -7 13 -4 16 2 2 -10 20
-29 40 -34 36 -109 138 -136 186 -8 15 -21 32 -29 38 -8 6 -11 16 -7 22 4 7 1
12 -6 12 -7 0 -28 16 -47 35 l-34 35 37 0 c20 0 36 5 36 10 0 6 -20 10 -44 10
-26 0 -48 6 -56 15 -10 12 -9 15 4 15 10 0 14 5 11 10 -4 6 -10 8 -15 5 -12
-8 -50 13 -50 26 0 6 -10 19 -22 30 l-23 18 25 2 c23 1 23 2 -4 8 -40 8 -46
31 -9 32 24 0 25 2 8 8 -11 5 -25 6 -31 4 -11 -4 -44 63 -107 217 -19 47 -67
153 -105 237 -386 836 -858 1394 -1402 1661 -298 146 -612 215 -959 210 -75
-1 -154 -3 -176 -5z m1183 -2308 c54 -52 126 -133 160 -180 89 -125 191 -341
261 -550 59 -177 153 -506 147 -512 -2 -2 -25 52 -51 119 -27 68 -75 188 -108
268 -32 80 -65 162 -73 184 -18 48 -146 307 -199 401 -45 81 -159 248 -217
318 -65 77 -26 54 80 -48z m-3128 -963 c31 -98 161 -372 222 -467 14 -22 51
-112 82 -200 32 -88 87 -227 123 -309 52 -117 63 -150 52 -157 -7 -4 -45 -16
-84 -26 -74 -19 -302 -25 -415 -11 -52 6 -51 5 20 -13 159 -40 322 -33 458 20
l47 19 43 -82 c92 -171 282 -452 290 -427 2 6 -1 41 -8 78 -6 38 -13 145 -17
238 l-6 170 54 -50 c145 -136 367 -305 559 -427 149 -94 354 -207 358 -197 4
9 -25 151 -63 314 -42 179 -121 450 -190 655 -76 225 -82 284 -41 406 28 81
59 222 76 342 l12 82 89 -84 c197 -188 541 -445 757 -566 l43 -24 -33 -18
c-86 -45 -222 -87 -351 -108 -73 -11 -329 -15 -394 -6 -35 5 -36 5 -8 -4 52
-17 256 -28 355 -20 159 14 320 59 420 118 l35 21 84 -51 c75 -46 91 -61 167
-163 263 -354 513 -769 654 -1085 58 -130 56 -94 20 -387 -22 -173 -70 -432
-106 -573 -28 -107 -13 -88 -235 -315 -213 -219 -314 -333 -356 -407 -20 -34
-110 -83 -281 -153 -300 -122 -422 -141 -852 -132 -451 9 -904 74 -1364 195
l-69 18 -117 179 -116 180 -12 144 c-24 282 -76 473 -255 931 -44 113 -86 222
-93 243 -26 70 8 588 62 957 14 96 28 192 31 212 4 24 12 40 24 43 23 8 33 39
20 64 -16 29 -14 51 20 195 34 148 55 222 105 381 41 128 134 365 143 365 3 0
22 -49 41 -108z m-2047 -440 c-4 -242 -2 -318 11 -410 9 -62 16 -117 16 -123
0 -6 4 -8 10 -4 5 3 -9 -45 -32 -107 -22 -62 -54 -161 -72 -220 -17 -59 -35
-110 -38 -114 -10 -9 -58 155 -79 274 -24 132 -26 375 -4 512 41 254 140 516
187 493 4 -2 4 -137 1 -301z m1397 -99 c47 -32 214 -188 262 -246 27 -32 45
-63 42 -69 -28 -45 -357 129 -366 194 -2 17 12 107 21 136 2 6 19 0 41 -15z
m5088 -567 c74 -39 131 -145 139 -259 7 -99 -16 -202 -72 -314 -46 -93 -144
-229 -156 -215 -8 8 -63 242 -57 246 1 1 19 9 38 18 89 40 150 129 150 221 0
80 -43 136 -124 163 -28 9 -52 18 -54 19 -2 2 16 99 23 123 6 17 79 15 113 -2z
m993 -41 c229 -116 388 -304 476 -560 24 -70 56 -196 51 -200 -2 -1 -85 6
-186 16 -167 17 -232 26 -317 44 -24 5 -27 4 -13 -5 33 -21 193 -49 402 -70
429 -44 608 -102 691 -225 33 -48 95 -209 85 -219 -3 -2 -60 -10 -126 -16
-134 -12 -278 -46 -352 -84 -211 -107 -440 -316 -680 -622 -39 -51 -79 -95
-88 -98 -33 -13 -33 7 0 72 19 37 55 117 81 177 103 243 168 342 265 404 50
33 77 41 201 65 79 15 191 40 250 56 114 31 238 84 221 94 -6 3 -61 26 -124
50 -62 24 -189 76 -281 115 -252 106 -341 124 -496 97 -104 -18 -263 -79 -409
-157 -51 -27 -97 -49 -102 -49 -19 0 -10 84 15 147 54 135 68 215 70 398 1
163 2 173 29 235 33 76 76 238 76 286 0 39 11 42 49 15 71 -51 232 -86 290
-64 24 9 22 11 -36 42 -54 29 -118 81 -99 81 3 0 29 -11 57 -25z m1360 -1284
c360 -93 787 -270 920 -382 46 -38 96 -105 87 -115 -3 -2 -31 5 -64 16 -74 26
-205 38 -292 28 -37 -5 -125 -13 -197 -18 -142 -9 -169 -15 -271 -53 -58 -21
-93 -26 -219 -31 -272 -11 -563 -50 -1089 -147 -120 -22 -221 -38 -223 -35 -9
8 158 207 272 325 216 223 421 364 585 401 206 47 337 50 491 11z m942 -504
c144 -46 277 -142 361 -261 56 -79 83 -134 150 -302 30 -77 75 -183 100 -236
40 -85 46 -106 46 -163 0 -106 -59 -199 -191 -301 -107 -82 -221 -128 -409
-163 -58 -11 -168 -32 -245 -46 -77 -14 -259 -55 -405 -91 -622 -152 -1029
-229 -1275 -240 l-110 -5 30 27 c24 21 25 23 5 11 -270 -174 -454 -219 -740
-179 -167 24 -209 20 -320 -27 -40 -17 -73 -31 -75 -31 -2 0 -10 19 -18 43 -8
23 -29 80 -46 127 l-31 85 36 32 c63 56 119 77 219 82 99 5 80 18 -30 20 -78
1 -122 -12 -184 -54 -28 -19 -52 -35 -55 -35 -2 0 -16 33 -31 73 -15 39 -38
94 -51 121 -13 28 -24 55 -24 61 0 16 88 35 163 36 52 0 58 2 37 10 -32 13
-133 16 -186 6 l-42 -8 -33 57 c-18 32 -52 81 -75 110 l-43 52 51 12 c28 7 76
10 107 7 55 -5 55 -5 21 8 -43 17 -139 19 -177 4 -24 -9 -30 -7 -46 12 -32 39
-19 61 53 90 196 78 513 62 915 -46 72 -19 144 -35 161 -35 47 0 296 127 526
268 60 38 236 166 248 182 3 3 32 28 65 55 72 58 129 106 300 250 231 196 301
245 439 310 127 60 192 75 331 75 165 0 352 -33 438 -76 15 -8 27 -12 27 -9 0
18 -216 95 -267 95 -12 0 -25 5 -29 12 -14 22 221 3 309 -25z m-7867 -463 c96
-147 110 -179 89 -200 -20 -20 -19 -31 3 -43 9 -6 14 -11 10 -11 -5 0 0 -8 11
-19 10 -10 24 -27 30 -37 10 -18 12 -18 21 -1 6 9 15 17 19 17 8 0 125 -170
119 -174 -2 -2 -33 -1 -69 2 l-65 4 -108 169 c-59 93 -105 172 -102 177 6 10
-10 37 -24 37 -12 0 -13 6 -4 42 7 28 -16 56 -40 47 -20 -8 -49 32 -39 51 8
13 61 55 70 55 2 0 37 -52 79 -116z m-2826 82 c99 -15 224 -51 324 -93 129
-54 264 -123 312 -159 369 -280 476 -351 686 -454 150 -74 281 -119 428 -148
l95 -19 -50 -11 c-48 -11 -48 -11 25 -6 105 8 194 40 425 154 304 149 328 155
665 155 l235 0 60 -34 c33 -19 92 -53 130 -76 39 -24 108 -61 153 -84 45 -22
89 -52 98 -66 11 -16 22 -70 30 -143 17 -150 16 -145 67 -225 25 -37 52 -92
62 -123 16 -52 16 -56 0 -74 -42 -46 -128 -30 -222 40 l-53 40 7 75 c5 67 3
79 -20 127 -29 58 -164 201 -218 230 -19 10 -41 16 -50 13 -11 -4 -29 11 -56
47 -94 124 -168 169 -274 167 l-44 -1 65 -17 c36 -9 76 -23 90 -30 45 -24 111
-95 166 -180 31 -46 88 -118 129 -161 54 -57 86 -102 121 -171 49 -98 84 -203
84 -253 0 -40 -35 -76 -75 -76 -75 0 -216 139 -324 318 -100 166 -165 246
-241 291 -41 24 -137 28 -185 7 -27 -12 -24 -13 41 -8 59 4 77 1 114 -18 94
-48 208 -196 306 -398 98 -201 117 -284 68 -302 -62 -24 -116 -2 -223 90 -56
48 -79 78 -131 170 -119 211 -152 229 -313 165 -34 -14 -75 -37 -92 -50 l-30
-26 50 24 c65 32 150 57 192 57 48 0 83 -38 158 -170 120 -210 148 -365 71
-384 -43 -11 -79 12 -167 106 l-86 91 -117 -52 c-307 -136 -485 -175 -652
-141 -32 6 -138 36 -234 66 -289 88 -261 84 -700 94 -217 5 -465 14 -550 19
-410 27 -926 85 -985 111 -40 18 -145 50 -164 50 -11 0 -35 9 -53 20 -19 11
-44 18 -56 15 -12 -2 -28 2 -35 8 -25 23 -117 68 -127 62 -6 -3 -10 -3 -10 2
0 13 -61 44 -72 36 -6 -3 -8 -1 -4 5 3 6 -6 13 -24 17 -17 4 -28 11 -25 16 4
5 -1 6 -9 3 -9 -3 -19 3 -26 18 -7 13 -25 37 -40 53 -15 17 -34 50 -43 75 -15
42 -15 48 2 100 19 54 60 146 84 185 209 342 499 635 752 758 176 86 287 102
485 73z m6990 -453 c58 -3 155 0 215 7 242 25 256 25 300 -4 75 -48 104 -71
105 -80 0 -5 -39 -6 -87 -3 -192 12 -447 -23 -548 -74 -55 -29 -74 -47 -180
-179 -52 -63 -120 -140 -152 -171 l-58 -57 -80 -6 c-89 -7 -340 5 -700 34
-443 36 -580 42 -757 30 -200 -12 -354 -47 -482 -110 l-86 -42 -31 26 c-47 40
-100 64 -192 89 -76 20 -102 21 -343 19 l-260 -2 -11 76 c-7 50 -17 83 -29 95
-11 10 -62 39 -114 65 -52 25 -110 56 -130 69 -19 12 -73 42 -119 66 -74 38
-102 61 -89 74 2 2 37 -5 78 -15 167 -44 471 -100 705 -130 369 -48 681 -61
953 -40 198 15 446 86 635 182 33 16 61 27 64 24 3 -2 -5 -33 -18 -68 -26 -75
-32 -230 -11 -290 l14 -38 37 48 c44 56 92 98 122 107 12 4 30 16 40 26 10 10
28 19 39 19 11 0 20 5 20 10 0 6 16 10 35 10 25 0 38 -6 47 -22 7 -13 11 -27
9 -33 -1 -5 1 -7 5 -3 4 5 31 -14 59 -41 99 -94 203 -147 311 -158 52 -6 52
-5 59 26 13 60 60 127 161 229 79 80 107 102 129 102 20 0 26 4 21 15 -3 10
22 35 77 79 73 57 84 63 107 54 14 -6 72 -12 130 -15z m-5278 -229 c11 -26 33
-67 49 -92 16 -25 27 -47 25 -49 -9 -10 -276 63 -276 75 0 4 17 17 38 30 20
12 57 36 82 52 25 15 49 29 53 29 4 1 17 -20 29 -45z m4003 -319 c411 -33 664
-48 763 -43 45 1 82 1 82 -1 0 -2 -14 -19 -31 -39 -38 -43 -59 -91 -61 -139
-2 -50 36 -83 97 -83 47 0 129 38 197 91 21 17 41 30 42 28 2 -2 -13 -32 -34
-66 -60 -100 -59 -174 4 -212 61 -38 119 -22 226 63 65 51 65 51 37 13 -16
-20 -37 -58 -48 -83 -17 -38 -19 -50 -9 -80 7 -19 23 -42 36 -51 35 -23 126
-13 194 22 46 23 52 24 45 8 -26 -61 -11 -111 42 -144 54 -33 133 -23 274 36
207 86 236 95 303 95 34 0 88 -5 119 -11 55 -11 58 -14 259 -218 113 -113 342
-352 511 -531 l306 -325 -157 -6 c-86 -4 -286 -7 -443 -8 l-286 -1 -147 185
-147 185 -89 0 -89 0 1 68 c2 52 -3 76 -20 109 -48 93 -121 150 -218 173 -66
15 -118 2 -194 -50 -39 -27 -78 -43 -135 -55 -106 -23 -179 -51 -242 -91 -61
-39 -75 -71 -49 -115 l17 -29 -1185 0 -1186 0 0 589 0 590 53 30 c114 65 292
108 492 119 172 10 329 4 670 -23z m-1445 -19 c92 -26 188 -81 201 -114 5 -13
9 -282 9 -597 l0 -575 -197 -2 -198 -3 -9 -112 -9 -113 -61 0 c-340 -1 -1114
-36 -1871 -86 -1016 -66 -1312 -84 -1625 -98 -173 -8 -316 -13 -318 -11 -6 6
150 193 338 405 179 203 585 646 602 656 17 11 156 4 228 -11 36 -8 144 -39
240 -70 96 -31 217 -63 269 -72 87 -15 102 -15 188 1 115 20 295 79 423 139
52 24 102 47 112 50 12 4 27 -11 57 -53 91 -129 206 -172 263 -98 20 26 24
103 9 156 -5 17 -7 32 -4 32 3 0 25 -18 49 -39 25 -21 60 -46 78 -55 47 -22
123 -21 163 4 31 18 32 21 28 75 -2 31 -16 81 -30 112 l-26 57 55 -54 c61 -60
84 -75 138 -90 30 -9 44 -8 68 5 50 26 64 57 57 130 -8 86 6 79 80 -38 60 -97
179 -229 250 -278 48 -33 57 -36 43 -11 -6 9 -28 71 -51 137 -22 66 -48 134
-58 151 -18 30 -18 31 7 59 20 24 23 36 18 71 -7 52 -29 102 -79 177 -28 42
-41 75 -47 115 -4 32 -6 59 -3 62 8 9 294 18 417 13 82 -3 142 -11 196 -27z
m-5945 -56 c5 -8 11 -8 20 0 18 15 29 -4 21 -36 -6 -21 -3 -24 21 -24 38 -1
63 -22 63 -52 0 -14 6 -30 13 -35 13 -12 47 -9 56 4 3 5 12 8 19 7 6 -1 17 -2
24 -3 6 0 8 -4 5 -8 -4 -3 -3 -11 2 -17 4 -6 11 -19 14 -29 6 -16 5 -17 -14
-3 -12 8 -28 12 -36 9 -7 -3 -22 2 -32 11 -10 9 -20 13 -24 10 -6 -6 -74 15
-94 29 -16 11 -45 70 -31 61 6 -4 6 0 -1 13 -6 11 -8 23 -6 27 3 3 2 3 -2 0
-8 -5 -9 -9 -12 -35 -2 -22 -31 13 -31 37 0 13 -4 24 -10 24 -5 0 -10 5 -10
10 0 13 37 13 45 0z m9991 -743 c298 -304 834 -876 834 -889 0 -5 -213 -7
-472 -6 l-473 2 370 7 c204 3 405 7 448 8 42 0 77 5 77 11 0 11 -598 647 -844
898 -93 94 -162 172 -154 172 9 0 105 -91 214 -203z m64 -4 c167 -169 764
-806 833 -888 l27 -33 -147 -8 c-82 -5 -305 -9 -497 -9 -291 0 -350 2 -354 14
-4 12 28 13 208 7 232 -7 712 3 731 15 8 5 -59 83 -202 235 -118 126 -281 301
-364 389 -82 87 -219 230 -302 316 -84 86 -153 159 -153 163 0 18 50 -27 220
-201z m638 -596 c180 -186 328 -342 330 -346 9 -26 -1056 -58 -1072 -32 -5 8
79 11 331 11 326 0 638 15 657 31 5 4 -22 41 -60 82 -38 41 -197 214 -354 383
-157 170 -348 374 -425 454 -77 80 -149 156 -160 170 -39 50 435 -424 753
-753z m-8014 691 c-21 -24 -137 -151 -259 -283 -347 -375 -665 -746 -665 -776
0 -19 623 -5 1385 31 474 23 602 30 1180 65 226 14 597 36 825 50 228 13 452
27 498 31 82 6 82 6 82 -18 l0 -24 -557 -42 c-872 -66 -1276 -90 -1853 -112
-286 -11 -1237 -12 -1463 -1 l-139 6 113 140 c182 227 498 579 773 863 110
113 151 148 80 70z m-101 -62 c-37 -40 -134 -143 -215 -229 -296 -314 -693
-785 -676 -802 2 -3 152 -10 334 -16 619 -21 1523 4 2514 71 331 23 1045 76
1133 85 46 5 57 3 57 -9 0 -16 -7 -17 -295 -46 -699 -69 -1395 -104 -2344
-120 -502 -8 -1478 -4 -1489 6 -4 3 459 518 677 754 126 136 363 380 369 380
2 0 -27 -33 -65 -74z m117 39 c0 -2 -96 -109 -212 -237 -395 -433 -662 -747
-649 -761 11 -11 685 20 1246 58 1033 69 1543 99 1990 114 487 17 665 20 665
10 0 -14 -20 -16 -575 -49 -291 -17 -705 -42 -920 -55 -413 -26 -770 -45
-1285 -70 -348 -16 -1159 -39 -1165 -33 -10 9 202 264 445 534 85 94 454 493
458 494 1 0 2 -2 2 -5z m6510 -266 c109 -49 184 -178 156 -267 -7 -20 -12 -22
-34 -15 -15 4 -64 8 -108 8 l-81 0 -34 44 c-48 63 -85 88 -107 75 -28 -18 -22
-81 12 -133 l29 -43 -32 -25 c-17 -14 -38 -38 -46 -54 -15 -28 -19 -29 -83
-29 -37 0 -74 4 -82 10 -8 5 -19 28 -25 51 -9 37 -15 44 -43 51 -22 6 -40 20
-53 43 -17 28 -29 36 -75 45 -30 6 -54 15 -54 19 0 4 10 17 23 28 49 45 154
89 256 109 43 8 94 26 119 42 24 15 58 35 75 44 44 24 130 23 187 -3z m123
-316 c41 -17 87 -65 87 -92 0 -16 -13 -19 -87 -25 -48 -4 -99 -14 -114 -22
-16 -8 -55 -14 -89 -14 -33 0 -76 -7 -95 -14 -32 -14 -36 -14 -45 4 -18 33 0
67 53 109 102 78 188 94 290 54z m162 -162 c89 -40 175 -174 183 -283 6 -73
-23 -137 -76 -170 -33 -21 -50 -23 -157 -24 -100 0 -131 -4 -183 -24 -47 -17
-74 -21 -111 -17 -71 8 -193 62 -243 106 -40 36 -42 40 -31 65 7 14 10 32 7
39 -3 8 2 19 10 26 14 12 14 16 1 42 -26 49 -19 75 33 127 53 52 125 92 167
92 33 0 85 -52 78 -78 -7 -30 62 -72 127 -76 23 -2 26 1 22 19 -3 11 -25 46
-49 77 -49 64 -52 76 -20 83 93 20 193 18 242 -4z"/>
<path d="M9455 5669 c-132 -40 -420 -81 -650 -94 -125 -7 -227 -25 -273 -49
-26 -14 -25 -14 21 -9 28 3 47 2 47 -4 0 -6 -27 -45 -60 -88 -60 -78 -68 -95
-33 -77 22 12 204 52 236 52 l24 0 -14 -76 c-18 -93 -5 -187 35 -267 22 -42
34 -55 67 -66 52 -18 313 -20 410 -2 62 10 74 17 98 47 46 56 76 127 86 200
12 80 2 138 -34 203 -26 46 -25 61 5 61 28 0 175 36 226 56 42 16 59 34 31 34
-7 0 -44 20 -81 45 -70 46 -88 50 -141 34z m-411 -275 c23 -9 20 -27 -11 -57
-36 -34 -109 -67 -151 -67 -36 0 -81 20 -101 44 -17 20 -5 53 22 62 58 18 211
30 241 18z"/>
<path d="M7320 5273 c-14 -2 -112 -27 -219 -54 -207 -53 -330 -69 -527 -69
-61 0 -125 -5 -142 -11 -30 -10 -31 -12 -16 -34 20 -30 6 -79 -34 -127 l-26
-31 134 6 c74 3 145 9 156 12 19 6 22 2 28 -52 12 -110 77 -207 167 -254 48
-24 96 -21 224 16 100 28 147 48 206 86 105 67 118 220 28 323 -43 49 -44 48
36 60 99 16 98 16 78 38 -10 11 -36 32 -58 46 l-40 26 45 12 c37 10 40 12 15
12 -16 -1 -41 -3 -55 -5z m-406 -301 c16 -26 -89 -122 -132 -122 -34 0 -62 27
-62 60 0 31 16 47 57 60 37 11 130 12 137 2z"/>
</g>
</svg>
